<?xml version="1.0" standalone="no"?>
<!DOCTYPE svg PUBLIC "-//W3C//DTD SVG 20010904//EN"
 "http://www.w3.org/TR/2001/REC-SVG-20010904/DTD/svg10.dtd">
<svg version="1.0" xmlns="http://www.w3.org/2000/svg"
 width="700.000000pt" height="700.000000pt" viewBox="0 0 700.000000 700.000000"
 preserveAspectRatio="xMidYMid meet">
<metadata>
Created by potrace 1.14, written by Peter Selinger 2001-2017
</metadata>
<g transform="translate(0.000000,700.000000) scale(0.100000,-0.100000)"
fill="#000000" stroke="none">
<path d="M3373 6836 c-23 -7 -61 -24 -85 -38 -58 -33 -2649 -2047 -2716 -2112
-34 -32 -67 -78 -90 -125 l-37 -75 0 -1740 0 -1741 22 -82 c47 -178 125 -320
242 -445 159 -170 331 -266 558 -313 66 -14 330 -16 2233 -16 1947 0 2166 2
2237 17 224 46 395 142 554 312 117 125 195 267 242 445 l22 82 0 1741 0 1740
-37 75 c-23 47 -56 93 -90 125 -29 28 -642 510 -1363 1070 -884 688 -1332
1030 -1379 1054 -63 32 -77 35 -170 37 -65 2 -116 -2 -143 -11z m1223 -1827
l1094 -851 -2 -1516 c-3 -1491 -3 -1518 -23 -1550 -11 -18 -38 -41 -60 -52
-39 -19 -63 -20 -418 -20 l-377 0 0 1274 c0 1222 -1 1277 -19 1335 -48 153
-172 266 -329 300 -74 16 -1850 16 -1924 0 -155 -33 -282 -148 -328 -298 -19
-61 -20 -97 -20 -1337 l0 -1274 -377 0 c-355 0 -379 1 -418 20 -22 11 -49 34
-60 52 -20 32 -20 59 -23 1550 l-2 1516 1092 851 c601 467 1095 850 1097 851
1 0 495 -383 1097 -851z m-656 -2969 l0 -1020 -440 0 -440 0 0 1020 0 1020
440 0 440 0 0 -1020z"/>
</g>
</svg>
